<?xml version="1.0" encoding="UTF-8"?>
<!DOCTYPE svg PUBLIC "-//W3C//DTD SVG 1.1//EN" "http://www.w3.org/Graphics/SVG/1.1/DTD/svg11.dtd">
<svg xmlns="http://www.w3.org/2000/svg" version="1.1" width="148px" height="152px" style="shape-rendering:geometricPrecision; text-rendering:geometricPrecision; image-rendering:optimizeQuality; fill-rule:evenodd; clip-rule:evenodd" xmlns:xlink="http://www.w3.org/1999/xlink">
<g><path style="opacity:1" fill="#886a2b" d="M 34.5,-0.5 C 49.8333,-0.5 65.1667,-0.5 80.5,-0.5C 81.5274,1.19416 82.8608,2.5275 84.5,3.5C 67.1667,3.5 49.8333,3.5 32.5,3.5C 32.0618,3.56544 31.7284,3.39877 31.5,3C 32.7101,1.9609 33.7101,0.794229 34.5,-0.5 Z"/></g>
<g><path style="opacity:1" fill="#806441" d="M 80.5,-0.5 C 93.5,-0.5 106.5,-0.5 119.5,-0.5C 125.237,5.89704 130.57,12.5637 135.5,19.5C 133.323,19.4139 131.323,18.7472 129.5,17.5C 128.913,18.2334 128.913,19.2334 129.5,20.5C 124.366,15.1955 119.366,9.69549 114.5,4C 104.506,3.50019 94.5056,3.33352 84.5,3.5C 82.8608,2.5275 81.5274,1.19416 80.5,-0.5 Z"/></g>
<g><path style="opacity:0.933" fill="#6b5660" d="M 27.5,0.5 C 26.9202,2.74876 25.5869,4.41543 23.5,5.5C 24.0798,3.25124 25.4131,1.58457 27.5,0.5 Z"/></g>
<g><path style="opacity:1" fill="#80643f" d="M 27.5,-0.5 C 29.8333,-0.5 32.1667,-0.5 34.5,-0.5C 33.7101,0.794229 32.7101,1.9609 31.5,3C 31.7284,3.39877 32.0618,3.56544 32.5,3.5C 28.8051,7.52592 25.1384,11.5259 21.5,15.5C 21.2089,14.3509 20.3756,13.6842 19,13.5C 17.0614,13.9543 15.228,14.621 13.5,15.5C 16.5,11.8333 19.8333,8.5 23.5,5.5C 25.5869,4.41543 26.9202,2.74876 27.5,0.5C 27.5,0.166667 27.5,-0.166667 27.5,-0.5 Z"/></g>
<g><path style="opacity:1" fill="#87692c" d="M 21.5,15.5 C 15.8377,21.3299 10.3377,27.3299 5,33.5C 4.50002,61.498 4.33336,89.498 4.5,117.5C 5.21781,119.137 5.38447,120.803 5,122.5C 3.55575,120.845 1.72241,120.178 -0.5,120.5C -0.5,90.1667 -0.5,59.8333 -0.5,29.5C 2.83333,26.5 6.16667,23.5 9.5,20.5C 11.5869,19.4154 12.9202,17.7488 13.5,15.5C 15.228,14.621 17.0614,13.9543 19,13.5C 20.3756,13.6842 21.2089,14.3509 21.5,15.5 Z"/></g>
<g><path style="opacity:0.965" fill="#745c51" d="M 13.5,15.5 C 12.9202,17.7488 11.5869,19.4154 9.5,20.5C 10.0798,18.2512 11.4131,16.5846 13.5,15.5 Z"/></g>
<g><path style="opacity:1" fill="#87692e" d="M 135.5,19.5 C 137.5,20.8333 139.167,22.5 140.5,24.5C 140.427,26.0269 141.094,27.0269 142.5,27.5C 144.167,28.8333 145.833,30.1667 147.5,31.5C 147.5,61.1667 147.5,90.8333 147.5,120.5C 141.806,125.527 136.473,130.86 131.5,136.5C 129.692,136.491 128.025,136.991 126.5,138C 123,140.669 119.667,143.502 116.5,146.5C 115.833,146.5 115.167,146.5 114.5,146.5C 117.167,143.167 120.167,140.167 123.5,137.5C 125.587,136.415 126.92,134.749 127.5,132.5C 130.5,128.833 133.833,125.5 137.5,122.5C 139.914,121.089 141.581,119.089 142.5,116.5C 142.667,89.4979 142.5,62.4979 142,35.5C 137.622,30.6268 133.455,25.6268 129.5,20.5C 128.913,19.2334 128.913,18.2334 129.5,17.5C 131.323,18.7472 133.323,19.4139 135.5,19.5 Z"/></g>
<g><path style="opacity:0.965" fill="#725a55" d="M 140.5,24.5 C 141.906,24.9731 142.573,25.9731 142.5,27.5C 141.094,27.0269 140.427,26.0269 140.5,24.5 Z"/></g>
<g><path style="opacity:1" fill="#87692d" d="M 35.5,28.5 C 50.8115,28.9463 66.1448,29.113 81.5,29C 89.8396,29.588 97.0062,32.7546 103,38.5C 110.047,53.6966 105.88,64.5299 90.5,71C 111.283,76.7348 117.45,89.5682 109,109.5C 103.514,115.492 96.6805,118.659 88.5,119C 70.8008,118.677 53.1342,118.511 35.5,118.5C 34.6527,116.939 34.9861,115.439 36.5,114C 41.1487,113.725 44.9821,111.892 48,108.5C 49.1197,97.7218 49.6197,86.8885 49.5,76C 49.5962,64.4597 49.0962,52.9597 48,41.5C 47.2935,39.9194 46.4601,38.4194 45.5,37C 42.0946,35.456 38.5946,34.2893 35,33.5C 34.3603,31.735 34.5269,30.0683 35.5,28.5 Z M 82.5,66.5 C 79.9902,66.9267 77.6568,67.5933 75.5,68.5C 71.9703,69.0111 68.8037,68.3444 66,66.5C 65.8333,61.5 65.6667,56.5 65.5,51.5C 61.6889,36.94 66.6889,32.1067 80.5,37C 83.5616,38.0608 86.0616,39.8941 88,42.5C 89.5059,47.7455 89.8392,53.0788 89,58.5C 87.6954,61.9614 85.5287,64.628 82.5,66.5 Z M 67.5,75.5 C 88.5175,73.6775 97.0175,83.0108 93,103.5C 90.1891,109.659 85.3557,112.325 78.5,111.5C 73.8792,112.244 70.0459,110.91 67,107.5C 65.4688,97.5517 65.1355,87.5517 66,77.5C 66.7172,76.9558 67.2172,76.2891 67.5,75.5 Z"/></g>
<g><path style="opacity:1" fill="#7b6147" d="M 82.5,66.5 C 82.3893,67.1174 82.056,67.6174 81.5,68C 79.5273,68.4955 77.5273,68.6621 75.5,68.5C 77.6568,67.5933 79.9902,66.9267 82.5,66.5 Z"/></g>
<g><path style="opacity:0.965" fill="#755c51" d="M 142.5,116.5 C 141.581,119.089 139.914,121.089 137.5,122.5C 138.419,119.911 140.086,117.911 142.5,116.5 Z"/></g>
<g><path style="opacity:1" fill="#7a604c" d="M 4.5,117.5 C 8.56581,120.563 11.8991,124.229 14.5,128.5C 13.5416,128.047 12.7083,127.381 12,126.5C 11.3333,127.5 11.3333,128.5 12,129.5C 16.192,133.423 20.0254,137.59 23.5,142C 24.9285,142.579 26.2618,142.412 27.5,141.5C 29.5,142.833 31.1667,144.5 32.5,146.5C 31.7109,146.783 31.0442,147.283 30.5,148C 32.0629,148.759 33.0629,149.926 33.5,151.5C 31.8333,151.5 30.1667,151.5 28.5,151.5C 19.5331,140.866 9.86642,130.866 -0.5,121.5C -0.5,121.167 -0.5,120.833 -0.5,120.5C 1.72241,120.178 3.55575,120.845 5,122.5C 5.38447,120.803 5.21781,119.137 4.5,117.5 Z"/></g>
<g><path style="opacity:1" fill="#806540" d="M 14.5,128.5 C 19.1667,132.5 23.5,136.833 27.5,141.5C 26.2618,142.412 24.9285,142.579 23.5,142C 20.0254,137.59 16.192,133.423 12,129.5C 11.3333,128.5 11.3333,127.5 12,126.5C 12.7083,127.381 13.5416,128.047 14.5,128.5 Z"/></g>
<g><path style="opacity:0.965" fill="#755c51" d="M 127.5,132.5 C 126.92,134.749 125.587,136.415 123.5,137.5C 124.08,135.251 125.413,133.585 127.5,132.5 Z"/></g>
<g><path style="opacity:1" fill="#82653b" d="M 131.5,136.5 C 126.793,141.205 122.46,146.205 118.5,151.5C 117.167,151.5 115.833,151.5 114.5,151.5C 115.441,149.95 116.107,148.284 116.5,146.5C 119.667,143.502 123,140.669 126.5,138C 128.025,136.991 129.692,136.491 131.5,136.5 Z"/></g>
<g><path style="opacity:1" fill="#856834" d="M 32.5,146.5 C 35.8333,146.5 39.1667,146.5 42.5,146.5C 42.8925,148.284 43.5592,149.95 44.5,151.5C 40.8333,151.5 37.1667,151.5 33.5,151.5C 33.0629,149.926 32.0629,148.759 30.5,148C 31.0442,147.283 31.7109,146.783 32.5,146.5 Z"/></g>
<g><path style="opacity:1" fill="#896a28" d="M 42.5,146.5 C 66.5,146.5 90.5,146.5 114.5,146.5C 115.167,146.5 115.833,146.5 116.5,146.5C 116.107,148.284 115.441,149.95 114.5,151.5C 91.1667,151.5 67.8333,151.5 44.5,151.5C 43.5592,149.95 42.8925,148.284 42.5,146.5 Z"/></g>
</svg>
