<?xml version="1.0" encoding="UTF-8"?>
<!DOCTYPE svg PUBLIC "-//W3C//DTD SVG 1.1//EN" "http://www.w3.org/Graphics/SVG/1.1/DTD/svg11.dtd">
<svg xmlns="http://www.w3.org/2000/svg" version="1.1" width="148px" height="152px" style="shape-rendering:geometricPrecision; text-rendering:geometricPrecision; image-rendering:optimizeQuality; fill-rule:evenodd; clip-rule:evenodd" xmlns:xlink="http://www.w3.org/1999/xlink">
<g><path style="opacity:1" fill="#51783a" d="M 32.5,-0.5 C 48.1667,-0.5 63.8333,-0.5 79.5,-0.5C 80.5274,1.19416 81.8608,2.5275 83.5,3.5C 66.5,3.5 49.5,3.5 32.5,3.5C 31.7611,3.63101 31.0944,3.46434 30.5,3C 31.9733,2.29044 32.6399,1.12377 32.5,-0.5 Z"/></g>
<g><path style="opacity:0.933" fill="#427e90" d="M 27.5,0.5 C 26.9202,2.74876 25.5869,4.41543 23.5,5.5C 24.0798,3.25124 25.4131,1.58457 27.5,0.5 Z"/></g>
<g><path style="opacity:1" fill="#4d7d5f" d="M 79.5,-0.5 C 92.8333,-0.5 106.167,-0.5 119.5,-0.5C 121.115,2.44951 123.115,5.11618 125.5,7.5C 123.774,7.18539 122.107,7.01872 120.5,7C 119.829,7.98619 119.829,9.15286 120.5,10.5C 118.734,8.2294 116.734,6.06274 114.5,4C 104.172,3.50017 93.8387,3.33351 83.5,3.5C 81.8608,2.5275 80.5274,1.19416 79.5,-0.5 Z"/></g>
<g><path style="opacity:1" fill="#4c7b58" d="M 27.5,-0.5 C 29.1667,-0.5 30.8333,-0.5 32.5,-0.5C 32.6399,1.12377 31.9733,2.29044 30.5,3C 31.0944,3.46434 31.7611,3.63101 32.5,3.5C 27.8053,8.52615 23.1387,13.5261 18.5,18.5C 17.4479,16.744 15.7812,16.0773 13.5,16.5C 13.5,16.1667 13.5,15.8333 13.5,15.5C 16.5,11.8333 19.8333,8.5 23.5,5.5C 25.5869,4.41543 26.9202,2.74876 27.5,0.5C 27.5,0.166667 27.5,-0.166667 27.5,-0.5 Z"/></g>
<g><path style="opacity:1" fill="#4d7a51" d="M 125.5,7.5 C 132.465,15.7999 139.798,23.7999 147.5,31.5C 147.5,31.8333 147.5,32.1667 147.5,32.5C 145.063,32.2437 142.729,31.5771 140.5,30.5C 139.893,30.6236 139.56,30.9569 139.5,31.5C 132.825,24.8246 126.492,17.8246 120.5,10.5C 119.829,9.15286 119.829,7.98619 120.5,7C 122.107,7.01872 123.774,7.18539 125.5,7.5 Z"/></g>
<g><path style="opacity:0.965" fill="#3c7b75" d="M 13.5,15.5 C 13.5,15.8333 13.5,16.1667 13.5,16.5C 12.5,18.1667 11.1667,19.5 9.5,20.5C 10.0798,18.2512 11.4131,16.5846 13.5,15.5 Z"/></g>
<g><path style="opacity:1" fill="#52793c" d="M 13.5,16.5 C 15.7812,16.0773 17.4479,16.744 18.5,18.5C 13.8371,23.3308 9.33708,28.3308 5,33.5C 4.50002,61.498 4.33336,89.498 4.5,117.5C 4.63101,118.239 4.46434,118.906 4,119.5C 2.67028,118.418 1.17028,117.751 -0.5,117.5C -0.5,88.1667 -0.5,58.8333 -0.5,29.5C 2.83333,26.5 6.16667,23.5 9.5,20.5C 11.1667,19.5 12.5,18.1667 13.5,16.5 Z"/></g>
<g><path style="opacity:1" fill="#517a3f" d="M 40.5,113.5 C 46.5,113.5 49.5,110.5 49.5,104.5C 49.9292,83.4602 49.4292,62.4602 48,41.5C 45.5345,36.4296 41.3679,33.9296 35.5,34C 34.4464,32.6124 34.2797,31.1124 35,29.5C 50.4029,28.9653 65.9029,28.7986 81.5,29C 88.5748,29.3729 94.9082,31.7062 100.5,36C 107.436,44.2004 108.27,53.0337 103,62.5C 99.2325,65.9635 95.0658,68.7968 90.5,71C 111.283,76.7348 117.45,89.5682 109,109.5C 106.292,113.104 102.792,115.604 98.5,117C 92.4445,118.648 86.2778,119.481 80,119.5C 66.829,118.256 53.6624,118.256 40.5,119.5C 35.152,119.921 33.8187,118.088 36.5,114C 37.7932,113.51 39.1266,113.343 40.5,113.5 Z M 67.5,35.5 C 87.4231,34.9137 93.9231,43.9137 87,62.5C 80.6576,68.1034 73.6576,69.4367 66,66.5C 65.8333,61.5 65.6667,56.5 65.5,51.5C 65.551,45.9215 66.2177,40.5882 67.5,35.5 Z M 67.5,75.5 C 88.5175,73.6775 97.0175,83.0108 93,103.5C 90.1891,109.659 85.3557,112.325 78.5,111.5C 73.8792,112.244 70.0459,110.91 67,107.5C 65.4688,97.5517 65.1355,87.5517 66,77.5C 66.7172,76.9558 67.2172,76.2891 67.5,75.5 Z"/></g>
<g><path style="opacity:1" fill="#527938" d="M 147.5,32.5 C 147.5,61.1667 147.5,89.8333 147.5,118.5C 144.86,119.448 142.193,120.448 139.5,121.5C 140.925,120.078 141.925,118.411 142.5,116.5C 142.667,89.4979 142.5,62.4979 142,35.5C 140.905,34.3066 140.072,32.9733 139.5,31.5C 139.56,30.9569 139.893,30.6236 140.5,30.5C 142.729,31.5771 145.063,32.2437 147.5,32.5 Z"/></g>
<g><path style="opacity:0.988" fill="#457b66" d="M 49.5,104.5 C 49.5,110.5 46.5,113.5 40.5,113.5C 45.1667,112.167 48.1667,109.167 49.5,104.5 Z"/></g>
<g><path style="opacity:0.965" fill="#3c7c75" d="M 142.5,116.5 C 141.925,118.411 140.925,120.078 139.5,121.5C 138.833,121.833 138.167,122.167 137.5,122.5C 138.419,119.911 140.086,117.911 142.5,116.5 Z"/></g>
<g><path style="opacity:1" fill="#4e7a4e" d="M 147.5,118.5 C 147.5,119.167 147.5,119.833 147.5,120.5C 137.495,130.506 127.828,140.839 118.5,151.5C 116.5,151.5 114.5,151.5 112.5,151.5C 112.893,149.716 113.559,148.05 114.5,146.5C 117.167,143.167 120.167,140.167 123.5,137.5C 125.587,136.415 126.92,134.749 127.5,132.5C 130.5,128.833 133.833,125.5 137.5,122.5C 138.167,122.167 138.833,121.833 139.5,121.5C 142.193,120.448 144.86,119.448 147.5,118.5 Z"/></g>
<g><path style="opacity:1" fill="#4c7d5f" d="M -0.5,117.5 C 1.17028,117.751 2.67028,118.418 4,119.5C 4.46434,118.906 4.63101,118.239 4.5,117.5C 11.8057,125.14 19.139,132.807 26.5,140.5C 26.5,141.5 26.5,142.5 26.5,143.5C 23.654,143.41 21.3206,142.244 19.5,140C 19.8333,139.667 20.1667,139.333 20.5,139C 19.552,138.517 18.552,138.351 17.5,138.5C 11.5,132.833 5.5,127.167 -0.5,121.5C -0.5,120.167 -0.5,118.833 -0.5,117.5 Z"/></g>
<g><path style="opacity:0.965" fill="#3c7c75" d="M 127.5,132.5 C 126.92,134.749 125.587,136.415 123.5,137.5C 124.08,135.251 125.413,133.585 127.5,132.5 Z"/></g>
<g><path style="opacity:1" fill="#527839" d="M 32.5,146.5 C 59.8333,146.5 87.1667,146.5 114.5,146.5C 113.559,148.05 112.893,149.716 112.5,151.5C 86.5,151.5 60.5,151.5 34.5,151.5C 33.2225,150.251 32.2225,148.751 31.5,147C 31.7284,146.601 32.0618,146.435 32.5,146.5 Z"/></g>
<g><path style="opacity:1" fill="#4d8076" d="M 17.5,138.5 C 18.552,138.351 19.552,138.517 20.5,139C 20.1667,139.333 19.8333,139.667 19.5,140C 21.3206,142.244 23.654,143.41 26.5,143.5C 26.5,142.5 26.5,141.5 26.5,140.5C 28.8333,142.167 30.8333,144.167 32.5,146.5C 32.0618,146.435 31.7284,146.601 31.5,147C 32.2225,148.751 33.2225,150.251 34.5,151.5C 32.5,151.5 30.5,151.5 28.5,151.5C 24.4579,147.46 20.7912,143.127 17.5,138.5 Z"/></g>
</svg>
