<?xml version="1.0" encoding="utf-8"?>
<!-- Generator: Adobe Illustrator 26.1.0, SVG Export Plug-In . SVG Version: 6.00 Build 0)  -->
<svg version="1.1" id="Calque_1" xmlns="http://www.w3.org/2000/svg" xmlns:xlink="http://www.w3.org/1999/xlink" x="0px" y="0px"
	 viewBox="0 0 381.5 76" width="252" height="50.2" xml:space="preserve">
<style type="text/css">
	.st0{fill:#838383;}
	.st1{fill:#FF2B44;}
	.st2{fill:#FFFFFF;}
	.st3{fill:#CFCFCF;}
</style>
<g>
	<rect x="0.1" y="52" class="st0" width="372" height="24"/>
</g>
<polygon class="st1" points="274.5,47.5 337.8,47.5 357.7,39.6 372,29.2 372,0 274.5,0 "/>
<rect class="st1" width="276" height="47.5"/>
<path class="st0" d="M323.7,47.5c0,0,10.6-0.1,29.7-6.1c10.8-3.4,18.7-12.7,18.7-12.7v18.8H323.7z"/>
<path class="st2" d="M360.1,38.1c-27.4,15.5-36.3,3.7-36.3,3.7c-5-7.4,11.8-17.4,11.8-17.4c8.4-4.8,13.7-5.5,13.7-5.5
	c7.7-1.4,3.5,2.4,2.3,3.4c7.9-6.4-1.6-4.8-1.6-4.8c-4.4,0.8-9,2.6-13.7,4.8c-7,3.4-12.4,7.9-15.5,12.2c-6.4,2.7-12.7,3.9-12.7,3.9
	c-18.5,3.3-23.1-4.5-23.1-4.5c-4.7-8.3,13.1-19.3,13.1-19.3c10.7-6.7,15.7-7.8,15.7-7.8c16.2-5-0.5,8.3-0.5,8.3
	c-7.7,6.4-26.4,19.7-26.4,19.7c26.7-17.2,33.3-25.4,33.3-25.4c1.6-1.8,1.9-2.8,1.6-3.4l0,0l0,0c-0.1-0.2-0.2-0.3-0.4-0.4
	c-2.8-2-12.5,2-17.5,4.2C286.5,17.5,275.2,30,278.6,38c3.5,8.1,20.7,8.5,38.5,0.9c0.6-0.2,1.1-0.5,1.7-0.7c-1.1,2.8-1,5.4,0.4,7.5
	c3.7,5.5,15.6,5.9,27.7,1.1c22.4-8.9,34.2-25.3,34.2-25.3C373,30,360.1,38.1,360.1,38.1"/>
<path class="st3" d="M360.5,36.8c-27.4,15.5-36.3,3.7-36.3,3.7c-5-7.4,11.8-17.4,11.8-17.4c8.4-4.8,13.7-5.5,13.7-5.5
	c7.7-1.4,3.5,2.4,2.3,3.4c7.9-6.4-1.6-4.8-1.6-4.8c-4.4,0.8-9,2.6-13.7,4.8c-7,3.4-12.4,7.9-15.5,12.2c-6.4,2.7-12.7,3.9-12.7,3.9
	c-18.5,3.3-23.1-4.4-23.1-4.4c-4.7-8.3,13.1-19.3,13.1-19.3c10.8-6.7,15.7-7.8,15.7-7.8c16.2-5-0.5,8.3-0.5,8.3
	c-7.7,6.4-26.4,19.7-26.4,19.7C314,16.4,320.6,8.2,320.6,8.2c1.6-1.8,1.9-2.8,1.6-3.4l0,0l0,0c-0.1-0.2-0.2-0.3-0.4-0.4
	c-2.8-2-12.5,2-17.5,4.2c-17.4,7.7-28.7,20.2-25.3,28.2c3.5,8.1,20.7,8.5,38.5,0.9c0.6-0.2,1.1-0.5,1.7-0.7c-1.1,2.8-1,5.4,0.4,7.5
	c3.7,5.5,15.6,5.9,27.7,1.1c22.4-8.9,34.2-25.3,34.2-25.3C373.3,28.8,360.5,36.8,360.5,36.8"/>
<path class="st2" d="M152.9,19.2c1.6-1.4,2.4-3.4,2.4-6c0-2.4-0.8-4.3-2.3-5.5c-1.5-1.3-3.7-1.9-6.6-1.9c-2.8,0-4.9,0.7-6.5,2.2
	c-1.6,1.4-2.3,3.4-2.3,5.9c0,2.4,0.8,4.2,2.3,5.5s3.6,2,6.4,2C149.1,21.4,151.3,20.7,152.9,19.2 M143.5,10.4c0.7-0.8,1.7-1.1,3-1.1
	s2.3,0.4,3,1.1s1,1.7,1,3.1s-0.3,2.6-1,3.4s-1.7,1.2-3,1.2s-2.3-0.4-3-1.1s-1-1.8-1-3.3C142.4,12.2,142.8,11.2,143.5,10.4"/>
<path class="st2" d="M165.3,6.1c1,0,1.7,0,2.2,0.1s0.9,0.2,1.2,0.3c0.6,0.3,1,0.7,1.4,1.2c0.3,0.6,0.5,1.2,0.5,2
	c0,1.1-0.2,2-0.7,2.7s-1.1,1.3-2,1.6l2.6,7h-4.9l-2.8-8.6h0.1c1.1,0,1.9-0.1,2.4-0.5c0.5-0.3,0.8-0.8,0.8-1.4c0-0.5-0.2-0.9-0.6-1.2
	c-0.4-0.3-1-0.4-1.8-0.4c-0.2,0-0.4,0-0.6,0c-0.2,0-0.4,0-0.6,0.1l-0.4,7.1c0,0.6-0.1,1.4-0.1,2.2c0,0.8,0,1.7-0.1,2.7h-4.8
	c0.2-1.9,0.4-4.1,0.5-6.6s0.2-5.3,0.3-8.3L165.3,6.1L165.3,6.1z"/>
<path class="st2" d="M179.2,21.1c2.8,0,4.9-0.7,6.4-2.1s2.2-3.4,2.2-6c0-1.3-0.2-2.5-0.6-3.5c-0.4-1-1-1.8-1.9-2.4
	c-0.5-0.4-1-0.6-1.7-0.8c-0.6-0.2-1.7-0.2-3.1-0.2h-7.2c0,3-0.1,5.8-0.3,8.3c-0.1,2.5-0.3,4.7-0.5,6.6L179.2,21.1L179.2,21.1z
	 M177.5,16.1c0-0.5,0-0.8,0-1l0.2-5.4h2.4c1,0,1.7,0.3,2.1,0.9c0.5,0.6,0.7,1.5,0.7,2.7c0,0.9-0.1,1.6-0.4,2.2
	c-0.3,0.6-0.7,1.1-1.2,1.5c-0.4,0.3-0.8,0.4-1.2,0.5c-0.5,0.1-1.2,0.2-2.2,0.2h-0.5C177.5,17,177.5,16.5,177.5,16.1"/>
<path class="st2" d="M197.8,6.1c1,0,1.7,0,2.2,0.1s0.9,0.2,1.2,0.3c0.6,0.3,1,0.7,1.4,1.2c0.3,0.6,0.5,1.2,0.5,2
	c0,1.1-0.2,2-0.7,2.7s-1.1,1.3-2,1.6l2.6,7h-4.9l-2.8-8.6h0.1c1.1,0,1.9-0.1,2.4-0.5c0.5-0.3,0.8-0.8,0.8-1.4c0-0.5-0.2-0.9-0.6-1.2
	c-0.4-0.3-1-0.4-1.8-0.4c-0.2,0-0.4,0-0.6,0c-0.2,0-0.4,0-0.6,0.1l-0.4,7.1c0,0.6-0.1,1.4-0.1,2.2c0,0.8,0,1.7-0.1,2.7h-4.8
	c0.2-1.9,0.4-4.1,0.5-6.6s0.2-5.3,0.3-8.3L197.8,6.1L197.8,6.1z"/>
<path class="st2" d="M205.1,21.1c0.2-1.8,0.4-4,0.5-6.5s0.2-5.3,0.3-8.5h12l-0.2,3.5c-0.6,0-1.1,0-1.6-0.1c-0.5,0-0.8,0-0.9,0h-4.7
	c-0.1,0.6-0.1,1-0.1,1.3s0,0.5,0,0.8v0.3h3.9c0.5,0,1,0,1.4,0s0.8,0,1.1-0.1l-0.2,3.5c-0.3,0-0.5,0-0.8,0s-0.7,0-1.3,0h-1h-3.4
	c0,0.3-0.1,0.6-0.1,0.9s0,0.6,0,0.9c0,0.2,0,0.3,0,0.4s0,0.2,0,0.2c0.4,0,0.9,0.1,1.4,0.1s1.1,0,1.8,0c0.8,0,1.5,0,2.2,0
	s1.4-0.1,2-0.1l-0.2,3.5h-12.1V21.1z"/>
<path class="st2" d="M233.7,21.1c2.8,0,4.9-0.7,6.4-2.1s2.2-3.4,2.2-6c0-1.3-0.2-2.5-0.6-3.5s-1-1.8-1.9-2.4c-0.5-0.4-1-0.6-1.7-0.8
	c-0.6-0.2-1.7-0.2-3.1-0.2h-7.2c0,3-0.1,5.8-0.3,8.3c-0.1,2.5-0.3,4.7-0.5,6.6L233.7,21.1L233.7,21.1z M232,16.1c0-0.5,0-0.8,0-1
	l0.3-5.4h2.4c1,0,1.7,0.3,2.1,0.9c0.5,0.6,0.7,1.5,0.7,2.7c0,0.9-0.1,1.6-0.4,2.2s-0.7,1.1-1.2,1.5c-0.4,0.3-0.8,0.4-1.2,0.5
	c-0.5,0.1-1.2,0.2-2.2,0.2H232C232,17,232,16.5,232,16.1"/>
<path class="st2" d="M244.3,21.1c0.2-1.8,0.4-4,0.5-6.5s0.2-5.3,0.3-8.5h12l-0.2,3.5c-0.6,0-1.1,0-1.6-0.1c-0.5,0-0.8,0-0.9,0h-4.7
	c-0.1,0.6-0.1,1-0.1,1.3s0,0.5,0,0.8v0.3h3.9c0.5,0,1,0,1.4,0s0.8,0,1.1-0.1l-0.2,3.5c-0.3,0-0.5,0-0.8,0s-0.7,0-1.3,0h-1h-3.2
	c0,0.3-0.1,0.6-0.1,0.9s0,0.6,0,0.9c0,0.2,0,0.3,0,0.4s0,0.2,0,0.2c0.4,0,0.9,0.1,1.4,0.1s1.1,0,1.8,0c0.8,0,1.5,0,2.2,0
	s1.4-0.1,2-0.1l-0.2,3.5h-12.3V21.1z"/>
<path class="st2" d="M258.4,17.1c0.9,0.3,1.7,0.5,2.4,0.7c0.7,0.1,1.4,0.2,2.1,0.2c0.5,0,0.8-0.1,1.1-0.3c0.3-0.2,0.4-0.4,0.4-0.7
	c0-0.4-0.5-1-1.6-1.9c-0.2-0.1-0.3-0.2-0.4-0.3l0,0c-2.4-1.9-3.6-3.5-3.6-4.9c0-1.3,0.5-2.3,1.6-3s2.5-1.1,4.4-1.1
	c0.5,0,1.1,0,1.7,0.1s1.4,0.2,2.2,0.4l0.3,3.4c-0.8-0.2-1.5-0.4-2-0.5s-0.9-0.1-1.3-0.1c-0.6,0-1.1,0.1-1.4,0.3
	c-0.3,0.2-0.5,0.4-0.5,0.8s0.6,1.1,1.8,2c0.2,0.2,0.4,0.3,0.5,0.4c1.3,1,2.1,1.8,2.6,2.5s0.7,1.4,0.7,2.2c0,1.4-0.5,2.4-1.6,3.2
	c-1.1,0.7-2.6,1.1-4.7,1.1c-0.6,0-1.3,0-2-0.1s-1.5-0.2-2.3-0.4L258.4,17.1z"/>
<path class="st2" d="M8.1,40.4c0.2-1.8,0.4-4,0.5-6.5s0.2-5.3,0.3-8.5h12l-0.2,3.5c-0.6,0-1.1,0-1.6-0.1c-0.5,0-0.8,0-0.9,0h-4.7
	c-0.1,0.6-0.1,1-0.1,1.3s0,0.5,0,0.8v0.3h3.9c0.5,0,1,0,1.4,0s0.8,0,1.1-0.1l-0.2,3.5c-0.3,0-0.5,0-0.8,0s-0.7,0-1.3,0h-1h-3.4
	c0,0.3-0.1,0.6-0.1,0.9c0,0.3,0,0.6,0,0.9c0,0.2,0,0.3,0,0.4c0,0.1,0,0.2,0,0.2c0.4,0,0.9,0.1,1.4,0.1s1.1,0,1.8,0
	c0.8,0,1.5,0,2.2,0s1.4-0.1,2-0.1l-0.2,3.5L8.1,40.4L8.1,40.4z"/>
<path class="st2" d="M31.4,40.4c-0.1-0.3-0.3-0.6-0.4-0.8c-0.1-0.2-0.2-0.5-0.3-0.6l-1.9-3.3l-2,3.1c-0.2,0.4-0.4,0.7-0.6,0.9
	c-0.2,0.3-0.3,0.5-0.4,0.8h-5.1l5.8-7.9l-4.5-7h5.4c0.1,0.2,0.2,0.4,0.3,0.6s0.2,0.3,0.2,0.5l1.5,2.9l1.5-2.4
	c0.1-0.1,0.2-0.3,0.3-0.5s0.3-0.6,0.6-1.1h5l-5.1,7.1l5.1,7.8h-5.4V40.4z"/>
<path class="st2" d="M45.3,25.5c1,0,1.8,0,2.2,0.1c0.4,0.1,0.8,0.2,1.2,0.3c0.6,0.3,1,0.7,1.4,1.4c0.3,0.6,0.5,1.4,0.5,2.2
	c0,1.6-0.5,2.9-1.4,3.8c-0.9,1-2.2,1.4-3.8,1.4c-0.1,0-0.2,0-0.4,0c-0.1,0-0.3,0-0.5,0l-1-2.9c0.9,0,1.5-0.1,2-0.5
	c0.4-0.3,0.6-0.8,0.6-1.4c0-0.5-0.2-0.9-0.5-1.2s-0.8-0.4-1.3-0.4c-0.2,0-0.6,0-1.1,0.1h-0.1l-0.3,7.1c0,0.8-0.1,1.6-0.1,2.4
	c0,0.8,0,1.6-0.1,2.5h-4.8c0.2-1.9,0.4-4.1,0.5-6.6s0.2-5.3,0.3-8.3H45.3z"/>
<path class="st2" d="M52.1,40.4c0.2-1.8,0.4-4,0.5-6.5s0.2-5.3,0.3-8.5h12l-0.2,3.5c-0.6,0-1.1,0-1.6-0.1c-0.5,0-0.8,0-0.9,0h-4.7
	c-0.1,0.6-0.1,1-0.1,1.3s0,0.5,0,0.8v0.3h3.9c0.5,0,1,0,1.4,0s0.8,0,1.1-0.1l-0.2,3.5c-0.3,0-0.5,0-0.8,0s-0.7,0-1.3,0h-1h-3.4
	c0,0.3-0.1,0.6-0.1,0.9c0,0.3,0,0.6,0,0.9c0,0.2,0,0.3,0,0.4c0,0.1,0,0.2,0,0.2c0.4,0,0.9,0.1,1.4,0.1s1.1,0,1.8,0
	c0.8,0,1.5,0,2.2,0s1.4-0.1,2-0.1l-0.2,3.5L52.1,40.4L52.1,40.4z"/>
<path class="st2" d="M74.5,25.5c1,0,1.7,0,2.2,0.1s0.9,0.2,1.2,0.3c0.6,0.3,1,0.7,1.4,1.3c0.3,0.6,0.5,1.2,0.5,2
	c0,1.1-0.2,2-0.7,2.7s-1.1,1.3-2,1.6l2.6,7h-4.9L72,31.9h0.1c1.1,0,1.9-0.1,2.4-0.5c0.5-0.3,0.8-0.8,0.8-1.4c0-0.5-0.2-0.9-0.6-1.2
	s-1-0.4-1.8-0.4c-0.2,0-0.4,0-0.6,0s-0.4,0-0.6,0.1l-0.4,7.1c0,0.6-0.1,1.4-0.1,2.2s0,1.7-0.1,2.7h-4.8c0.2-1.9,0.4-4.1,0.5-6.6
	s0.2-5.3,0.3-8.3h7.4V25.5z"/>
<path class="st2" d="M94.5,25.5l-0.2,3.4c-0.6-0.1-1.3-0.1-1.9-0.2c-0.6,0-1.2,0-1.8,0h-0.5l-0.4,6.8c0,0.5,0,0.9,0,1.4s0,0.9,0,1.4
	c0,0.6,0,1,0,1.3s0,0.6,0,0.8h-4.8c0.1-1.2,0.3-2.8,0.4-4.8s0.2-4.3,0.3-6.9c-0.9,0-1.8,0-2.5,0.1c-0.7,0-1.4,0.1-1.9,0.1l0.2-3.5
	h13.1V25.5z"/>
<path class="st2" d="M95.1,36.5c0.9,0.3,1.7,0.5,2.4,0.7c0.7,0.1,1.4,0.2,2.1,0.2c0.5,0,0.8-0.1,1.1-0.3c0.3-0.2,0.4-0.4,0.4-0.7
	c0-0.4-0.5-1-1.6-1.9c-0.2-0.1-0.3-0.2-0.4-0.3l0,0c-2.4-1.9-3.6-3.5-3.6-4.9c0-1.3,0.5-2.3,1.6-3s2.5-1.1,4.4-1.1
	c0.5,0,1.1,0,1.7,0.1s1.4,0.2,2.2,0.4l0.3,3.4c-0.8-0.2-1.5-0.4-2-0.5s-0.9-0.1-1.3-0.1c-0.6,0-1.1,0.1-1.4,0.3s-0.5,0.4-0.5,0.8
	s0.6,1.1,1.8,2c0.2,0.2,0.4,0.3,0.5,0.4c1.3,1,2.1,1.8,2.6,2.5s0.7,1.4,0.7,2.2c0,1.4-0.5,2.4-1.6,3.2c-1.1,0.7-2.6,1.1-4.7,1.1
	c-0.6,0-1.3,0-2-0.1s-1.5-0.2-2.3-0.4L95.1,36.5z"/>
<polygon class="st2" points="113.5,36.2 108.2,36.2 108.4,32.9 113.7,32.9 "/>
<path class="st2" d="M129.2,29.1c-0.6-0.2-1.2-0.3-1.8-0.4c-0.6-0.1-1.2-0.1-1.8-0.1c-1.6,0-2.8,0.4-3.7,1.3c-0.9,0.8-1.3,2-1.3,3.5
	c0,1.4,0.4,2.4,1.2,3.1c0.8,0.7,2,1,3.6,1c0.6,0,1.2,0,1.8-0.1s1.2-0.2,1.8-0.4l-0.5,3.5c-0.7,0.1-1.3,0.3-2,0.3
	c-0.7,0.1-1.4,0.1-2.1,0.1c-2.8,0-4.9-0.6-6.3-1.9c-1.4-1.3-2.2-3.1-2.2-5.6c0-2.6,0.8-4.6,2.3-6c1.6-1.4,3.8-2.1,6.6-2.1
	c0.7,0,1.4,0,2.1,0.1c0.7,0.1,1.4,0.2,2.2,0.4L129.2,29.1z"/>
<path class="st2" d="M146.3,38.6c1.6-1.4,2.4-3.4,2.4-6c0-2.4-0.8-4.3-2.3-5.5c-1.5-1.3-3.7-1.9-6.6-1.9c-2.8,0-4.9,0.7-6.5,2.2
	c-1.6,1.4-2.3,3.4-2.3,5.9c0,2.4,0.8,4.2,2.3,5.5s3.6,2,6.4,2C142.5,40.8,144.7,40,146.3,38.6 M136.9,29.8c0.7-0.8,1.7-1.1,3-1.1
	s2.3,0.4,3,1.1s1,1.7,1,3.1c0,1.4-0.4,2.6-1,3.4c-0.7,0.8-1.7,1.2-3,1.2s-2.3-0.4-3-1.1c-0.7-0.7-1-1.8-1-3.3
	C135.8,31.6,136.2,30.5,136.9,29.8"/>
<path class="st2" d="M158,25.5c0,0.2,0.1,0.4,0.1,0.7c0,0.2,0.1,0.5,0.1,0.8l1.6,8.1l2.4-7.6c0.1-0.4,0.3-0.8,0.3-1.1
	c0.1-0.3,0.2-0.6,0.2-0.9h6.4c0,0.8-0.1,1.7-0.1,2.7c0,0.2,0,0.4,0,0.4l-0.3,8.5c0,0.1,0,0.2,0,0.4s0,0.4,0,0.5c0,0.3,0,0.7,0,1.1
	c0,0.4,0,0.8,0.1,1.3h-4.4c0-0.4,0.1-0.8,0.1-1.2s0.1-0.9,0.1-1.3l0.3-5.2c0-0.1,0-0.6,0-1.4c0-0.8,0-1.6,0.1-2.2l-3.3,9.6
	c-0.1,0.4-0.3,0.8-0.3,1c-0.1,0.3-0.1,0.5-0.2,0.8h-3.7c0-0.2-0.1-0.5-0.1-0.7c0-0.3-0.1-0.6-0.2-0.9l-2.1-9.7l-0.6,7.3
	c0,0.4-0.1,1-0.1,1.6s-0.1,1.4-0.1,2.4h-4c0.3-1.8,0.5-4,0.8-6.6c0.2-2.5,0.4-5.3,0.6-8.4L158,25.5L158,25.5z"/>
<path class="st2" d="M178.9,25.5c1,0,1.8,0,2.2,0.1s0.8,0.2,1.2,0.3c0.6,0.3,1,0.7,1.4,1.4c0.3,0.6,0.5,1.4,0.5,2.2
	c0,1.6-0.5,2.9-1.4,3.8c-0.9,1-2.2,1.4-3.8,1.4c-0.1,0-0.2,0-0.4,0c-0.1,0-0.3,0-0.5,0l-1-2.9c0.9,0,1.5-0.1,2-0.5
	c0.4-0.3,0.6-0.8,0.6-1.4c0-0.5-0.2-0.9-0.5-1.2s-0.8-0.4-1.3-0.4c-0.2,0-0.6,0-1.1,0.1h-0.1l-0.3,7.1c0,0.8-0.1,1.6-0.1,2.4
	c0,0.8,0,1.6-0.1,2.5h-4.8c0.2-1.9,0.4-4.1,0.5-6.6s0.2-5.3,0.3-8.3H178.9z"/>
<path class="st2" d="M198.4,25.5l-0.2,3.4c-0.6-0.1-1.3-0.1-1.9-0.2c-0.6,0-1.2,0-1.8,0H194l-0.4,6.8c0,0.5,0,0.9,0,1.4s0,0.9,0,1.4
	c0,0.6,0,1,0,1.3s0,0.6,0,0.8h-4.8c0.2-1.2,0.3-2.8,0.4-4.8c0.1-2,0.2-4.3,0.3-6.9c-0.9,0-1.8,0-2.5,0.1c-0.7,0-1.4,0.1-1.9,0.1
	l0.2-3.5h13.1V25.5z"/>
<path class="st2" d="M197.4,40.5h4.9c0.1-0.3,0.2-0.6,0.3-0.9c0.1-0.3,0.2-0.6,0.3-0.9l1.2-3h5.3l0.8,3.4c0.1,0.3,0.1,0.5,0.2,0.7
	c0,0.2,0.1,0.4,0.1,0.6h4.9L211,27c-0.1-0.3-0.2-0.5-0.2-0.8c-0.1-0.3-0.1-0.5-0.1-0.8h-5.9c-0.2,0.5-0.3,0.9-0.5,1.2
	c-0.1,0.3-0.2,0.5-0.3,0.7L197.4,40.5z M208.7,32.4h-3.2l2-4.8L208.7,32.4"/>
<path class="st2" d="M217.2,25.5c0,3-0.1,5.7-0.2,8.2c-0.1,2.5-0.3,4.8-0.6,6.7h7.9c1.8,0,3.1-0.4,4.1-1.1c0.9-0.7,1.4-1.8,1.4-3.2
	c0-1.1-0.3-1.9-0.9-2.5c-0.6-0.6-1.6-0.9-2.8-1.1c1.1-0.2,2-0.6,2.6-1.2c0.6-0.7,0.9-1.5,0.9-2.5c0-1.2-0.4-2-1.1-2.6
	c-0.8-0.5-2-0.8-3.7-0.8h-7.6V25.5z M221.3,36.8c0-0.5,0-0.8,0-1s0-0.4,0-0.5l0.1-1.2h2c0.7,0,1.1,0.1,1.5,0.4
	c0.3,0.3,0.5,0.7,0.5,1.3s-0.2,1.1-0.6,1.4c-0.4,0.3-1,0.4-1.8,0.4h-1.7V36.8 M221.6,29.8c0-0.2,0-0.5,0.1-0.9c0-0.3,0-0.5,0-0.6
	h1.3c0.7,0,1.2,0.1,1.5,0.3c0.3,0.2,0.4,0.6,0.4,1.1c0,0.6-0.2,1-0.6,1.2c-0.4,0.3-1,0.4-1.9,0.4h-1L221.6,29.8"/>
<path class="st2" d="M237.4,25.5c-0.2,1.5-0.3,3.1-0.5,4.8c-0.1,1.7-0.2,3.4-0.2,5.1c0,0.4,0,0.9,0,1.6v0.1c0.4,0,0.8,0.1,1.2,0.1
	c0.4,0,0.7,0,1.1,0c0.6,0,1.3,0,1.9,0s1.3-0.1,2.1-0.1l-0.2,3.5h-11.2c0.2-1.8,0.4-4,0.5-6.5s0.2-5.3,0.3-8.5h5V25.5z"/>
<path class="st2" d="M244.3,40.4c0.2-1.8,0.4-4,0.5-6.5s0.2-5.3,0.3-8.5h12l-0.2,3.5c-0.6,0-1.1,0-1.6-0.1c-0.5,0-0.8,0-0.9,0h-4.7
	c-0.1,0.6-0.1,1-0.1,1.3s0,0.5,0,0.8v0.3h3.9c0.5,0,1,0,1.4,0s0.8,0,1.1-0.1l-0.2,3.5c-0.2,0-0.5,0-0.8,0s-0.7,0-1.3,0h-1h-3.2
	c0,0.3-0.1,0.6-0.1,0.9c0,0.3,0,0.6,0,0.9c0,0.2,0,0.3,0,0.4c0,0.1,0,0.2,0,0.2c0.4,0,0.9,0.1,1.4,0.1s1.1,0,1.8,0
	c0.8,0,1.5,0,2.2,0s1.3-0.1,2-0.1l-0.2,3.5L244.3,40.4L244.3,40.4z"/>
<path class="st2" d="M258.4,36.5c0.9,0.3,1.7,0.5,2.4,0.7c0.7,0.1,1.4,0.2,2.1,0.2c0.5,0,0.8-0.1,1.1-0.3c0.3-0.2,0.4-0.4,0.4-0.7
	c0-0.4-0.5-1-1.6-1.9c-0.2-0.1-0.3-0.2-0.4-0.3l0,0c-2.4-1.9-3.6-3.5-3.6-4.9c0-1.3,0.5-2.3,1.6-3s2.5-1.1,4.4-1.1
	c0.5,0,1.1,0,1.7,0.1s1.4,0.2,2.2,0.4l0.3,3.4c-0.8-0.2-1.5-0.4-2-0.5s-0.9-0.1-1.3-0.1c-0.6,0-1.1,0.1-1.4,0.3s-0.5,0.4-0.5,0.8
	s0.6,1.1,1.8,2c0.2,0.2,0.4,0.3,0.5,0.4c1.3,1,2.1,1.8,2.6,2.5s0.7,1.4,0.7,2.2c0,1.4-0.5,2.4-1.6,3.2c-1.1,0.7-2.6,1.1-4.7,1.1
	c-0.6,0-1.3,0-2-0.1s-1.5-0.2-2.3-0.4L258.4,36.5z"/>
<g>
	<path class="st2" d="M231.7,58l0.5,2.9c-0.3-0.1-0.7-0.1-1-0.2s-0.8-0.1-1.2-0.1c-0.1,0-0.3,0-0.4,0c-0.1,0-0.3,0-0.4,0l0,0l0,0
		c-1.1,0-2.1,0.3-3,0.8s-1.3,1.4-1.3,2.8c0,1.4,0.4,2.4,1.2,3s1.7,0.9,2.9,0.9c0.4,0,0.9-0.1,1.4-0.2c0.5-0.1,1-0.2,1.5-0.4
		c0.1,0,0.2-0.1,0.3-0.1c0.1,0,0.2-0.1,0.3-0.1l-0.4,2.9c-0.6,0.1-1.3,0.3-1.9,0.3c-0.6,0.1-1.1,0.1-1.6,0.1c-2.3,0-4-0.4-5.2-1.4
		c-1.1-1-1.8-2.1-2.2-3.4c-0.1-0.2-0.1-0.5-0.1-0.7c0-0.3,0-0.5-0.1-0.7c0,0,0,0,0-0.1v-0.1v-0.1c0,0,0,0,0-0.1s0-0.2,0-0.4
		c0-0.1,0-0.3,0.1-0.4c0.2-1.4,0.9-2.7,2.1-3.9c1.2-1.2,3-1.8,5.3-1.8c0.5,0,1,0,1.6,0.1C230.7,57.7,231.1,57.9,231.7,58L231.7,58z"
		/>
	<path class="st2" d="M238.7,60.9c1.9,0,3.3,0.6,4.2,1.6c0.9,1,1.4,2.2,1.4,3.4s-0.4,2.3-1.4,3.3c-0.9,1-2.3,1.5-4.1,1.5
		c-1.8,0-3.3-0.4-4.2-1.4c-1-1-1.5-2.1-1.5-3.3c0-0.1,0-0.1,0-0.2c0-0.1,0-0.1,0-0.2c0.1-1.1,0.6-2.2,1.5-3.2
		C235.6,61.4,236.9,60.9,238.7,60.9L238.7,60.9z M237.1,64.3c-0.4,0.5-0.5,1.1-0.5,1.7c0,0.1,0,0.1,0,0.2c0,0.1,0,0.1,0,0.2
		c0.1,0.4,0.3,0.8,0.6,1.2s0.8,0.5,1.4,0.5c0,0,0,0,0.1,0c0,0,0,0,0.1,0h0.1c0,0,0,0,0.1,0c0.6,0,1.1-0.3,1.4-0.7
		c0.3-0.5,0.5-1,0.5-1.5v-0.1v-0.1c0-0.5-0.2-0.9-0.6-1.4s-0.8-0.6-1.4-0.6C238,63.6,237.5,63.8,237.1,64.3z"/>
	<path class="st2" d="M249.9,61.4c0.6-0.3,1.3-0.5,2-0.6c0.1,0,0.2,0,0.4,0c0.1,0,0.2,0,0.4,0c0.8,0,1.6,0.2,2.3,0.6
		c0.7,0.4,1.1,1.1,1.1,2.1l0.1,7l-3.6,0.1l-0.1-4.9c0-0.6-0.2-1-0.5-1.3s-0.7-0.5-1-0.5l0,0l0,0c-0.1,0-0.1,0-0.2,0s-0.1,0-0.1,0
		c-0.4,0.1-0.8,0.3-1.1,0.7c-0.3,0.4-0.5,1-0.5,1.7l0.1,4.3l-3.6,0.1l-0.2-9.3l3.3-0.1v1.3C248.9,62.1,249.3,61.8,249.9,61.4z"/>
	<path class="st2" d="M263.6,63.4c-0.4,0-0.7-0.1-1-0.1c-0.4,0-0.6,0.1-0.8,0.2c-0.2,0.1-0.3,0.2-0.3,0.4s0.1,0.3,0.4,0.6
		c0.2,0.2,0.6,0.5,1,0.7c0.4,0.3,0.8,0.5,1.1,0.8c0.3,0.3,0.5,0.6,0.7,0.9c0.1,0.2,0.2,0.4,0.3,0.6c0.1,0.2,0.1,0.4,0.1,0.6
		c0,0.7-0.3,1.3-1,1.8s-1.7,0.8-3,0.8c-0.5,0-1,0-1.5-0.1s-1.1-0.2-1.7-0.3l-0.5-2.7c0.7,0.2,1.3,0.4,1.8,0.4
		c0.5,0.1,0.9,0.1,1.2,0.1c0.3,0,0.5,0,0.6-0.1s0.2-0.2,0.2-0.3s-0.1-0.2-0.2-0.4s-0.3-0.3-0.4-0.5c-0.1-0.1-0.2-0.2-0.4-0.3
		c-0.1-0.1-0.3-0.2-0.5-0.3c-0.4-0.3-0.8-0.6-1.1-1s-0.5-0.8-0.7-1.2c0-0.1-0.1-0.3-0.1-0.4c0-0.1,0-0.3,0-0.4
		c0-0.6,0.3-1.2,0.9-1.7s1.5-0.8,2.9-0.8c0.4,0,0.9,0,1.4,0s1.1,0.1,1.7,0.2l0.3,2.5C264.4,63.6,264,63.5,263.6,63.4z"/>
	<path class="st2" d="M274.8,62.2c0.8,0.9,1.2,1.9,1.2,3.1c0,0.2,0,0.4,0,0.5c0,0.2,0,0.4-0.1,0.6l-6.7,0.1c0.2,0.6,0.6,1.1,1.1,1.5
		s1.1,0.5,1.9,0.5c0.4,0,0.9-0.1,1.4-0.2c0.5-0.1,1.1-0.3,1.7-0.5l-0.3,2.6c-0.6,0.2-1.2,0.3-1.8,0.4s-1.1,0.2-1.6,0.2
		c-1.9,0-3.4-0.5-4.4-1.5s-1.5-2.2-1.5-3.4l0,0l0,0c0,0,0,0,0-0.1c0,0,0,0,0-0.1c0-1.2,0.5-2.3,1.3-3.4c0.9-1,2.2-1.6,3.9-1.6h0.1
		C272.8,60.8,274,61.3,274.8,62.2z M272,63.3c-0.3-0.2-0.7-0.4-1.1-0.3c-0.4,0-0.7,0.2-1,0.4s-0.5,0.7-0.5,1.2l3.1-0.1
		C272.5,64,272.3,63.6,272,63.3z"/>
	<path class="st2" d="M280.4,57.7v2.1l-3.6,0.1v-2.1L280.4,57.7z M280.5,61.2l0.2,9.3l-3.6,0.1l-0.2-9.3L280.5,61.2z"/>
	<path class="st2" d="M285.3,57.9l0.2,12.6l-3.6,0.1L281.7,58L285.3,57.9z"/>
	<path class="st2" d="M296.1,61.4c0.6-0.3,1.3-0.5,2-0.6c0.1,0,0.2,0,0.4,0c0.1,0,0.2,0,0.4,0c0.8,0,1.6,0.2,2.3,0.6
		c0.7,0.4,1.1,1.1,1.1,2.1l0.1,7l-3.6,0.1l-0.1-4.9c0-0.6-0.2-1-0.5-1.3s-0.7-0.5-1-0.5l0,0l0,0c-0.1,0-0.1,0-0.2,0s-0.1,0-0.1,0
		c-0.4,0.1-0.8,0.3-1.1,0.7c-0.3,0.4-0.5,1-0.5,1.7l0.1,4.3l-3.6,0.1l-0.2-9.3l3.3-0.1v1.3C295,62.1,295.5,61.8,296.1,61.4z"/>
	<path class="st2" d="M307.1,61.2c0.7-0.1,1.4-0.2,2-0.2c1.4,0,2.5,0.2,3.1,0.7c0.7,0.5,1,1,1.1,1.7l0.1,7.1l-3.6,0.1l-0.1-4.1
		c-0.1,0.1-0.3,0.2-0.5,0.3s-0.4,0.1-0.5,0.2c-0.1,0-0.1,0-0.2,0.1c-0.1,0-0.1,0-0.2,0.1c-0.3,0.1-0.6,0.2-0.8,0.3
		c-0.2,0.1-0.4,0.3-0.5,0.5c0,0,0,0,0,0.1v0.1v0.1v0.1c0,0.2,0.1,0.3,0.3,0.5s0.5,0.2,0.8,0.2c0.1,0,0.2,0,0.3,0
		c0.1,0,0.2,0,0.4-0.1c0,0,0,0,0.1,0c0,0,0,0,0.1,0h0.1h0.1l-0.4,2.1c-0.1,0-0.1,0-0.2,0s-0.1,0-0.2,0c-0.2,0-0.3,0-0.5,0
		s-0.3,0-0.4,0c-1.4,0-2.3-0.2-2.9-0.7s-1-1-1-1.6c0-0.1,0-0.1,0-0.2s0-0.1,0-0.2l0,0l0,0c0-0.5,0.1-0.9,0.4-1.3
		c0.2-0.4,0.5-0.7,0.8-0.9c0.2-0.1,0.4-0.2,0.6-0.3s0.4-0.2,0.6-0.2c0.4-0.1,0.8-0.2,1.2-0.3c0.4-0.1,0.8-0.2,1.1-0.3
		c0.4-0.1,0.8-0.2,1-0.4c0.3-0.1,0.4-0.3,0.4-0.5l0,0c0,0,0,0,0-0.1l0,0l0,0l0,0l0,0c0,0,0-0.1-0.1-0.1l-0.1-0.1
		c-0.1-0.1-0.3-0.1-0.5-0.2c-0.2-0.1-0.5-0.1-0.8-0.1c-0.4,0-0.9,0.1-1.5,0.2c-0.6,0.1-1.3,0.4-2.1,0.8l0.2-2.4
		C305.5,61.5,306.3,61.3,307.1,61.2z"/>
	<path class="st2" d="M315.6,59.4l3.6-0.8v2.6h2.1v2.5h-2.1l0.1,3.2c0,0.5,0.1,0.8,0.3,1c0.2,0.2,0.4,0.2,0.7,0.2c0.1,0,0.2,0,0.4,0
		c0.1,0,0.3,0,0.4-0.1l0,0c0.1,0,0.2,0,0.3-0.1c0.1,0,0.2,0,0.3-0.1l-0.4,2.5c-0.2,0.2-0.5,0.3-0.9,0.4c-0.4,0.1-0.8,0.2-1.3,0.2
		H319h-0.1c-0.1,0-0.1,0-0.2,0s-0.1,0-0.2,0c-0.6,0-1.2-0.2-1.8-0.5c-0.5-0.3-0.8-0.8-0.9-1.6l-0.1-5.1h-1.5v-2.5h1.5L315.6,59.4z"
		/>
	<path class="st2" d="M326,57.7v2.1l-3.6,0.1v-2.1L326,57.7z M326,61.2l0.2,9.3l-3.6,0.1l-0.2-9.3L326,61.2z"/>
	<path class="st2" d="M332.6,60.9c1.9,0,3.3,0.6,4.2,1.6c0.9,1,1.4,2.2,1.4,3.4s-0.4,2.3-1.4,3.3c-0.9,1-2.3,1.5-4.1,1.5
		c-1.8,0-3.3-0.4-4.2-1.4c-1-1-1.5-2.1-1.5-3.3c0-0.1,0-0.1,0-0.2c0-0.1,0-0.1,0-0.2c0.1-1.1,0.6-2.2,1.5-3.2
		C329.5,61.4,330.9,60.9,332.6,60.9L332.6,60.9z M331,64.3c-0.4,0.5-0.5,1.1-0.5,1.7c0,0.1,0,0.1,0,0.2c0,0.1,0,0.1,0,0.2
		c0.1,0.4,0.3,0.8,0.6,1.2s0.8,0.5,1.4,0.5c0,0,0,0,0.1,0c0,0,0,0,0.1,0h0.1c0,0,0,0,0.1,0c0.6,0,1.1-0.3,1.4-0.7
		c0.3-0.5,0.5-1,0.5-1.5v-0.1v-0.1c0-0.5-0.2-0.9-0.6-1.4s-0.8-0.6-1.4-0.6C331.9,63.6,331.4,63.8,331,64.3z"/>
	<path class="st2" d="M343.9,61.4c0.6-0.3,1.3-0.5,2-0.6c0.1,0,0.2,0,0.4,0c0.1,0,0.2,0,0.4,0c0.8,0,1.6,0.2,2.3,0.6
		c0.7,0.4,1.1,1.1,1.1,2.1l0.1,7l-3.6,0.1l-0.1-4.9c0-0.6-0.2-1-0.5-1.3s-0.7-0.5-1-0.5l0,0l0,0c-0.1,0-0.1,0-0.2,0s-0.1,0-0.1,0
		c-0.4,0.1-0.8,0.3-1.1,0.7c-0.3,0.4-0.5,1-0.5,1.7l0.1,4.3l-3.6,0.1l-0.2-9.3l3.3-0.1v1.3C342.8,62.1,343.2,61.8,343.9,61.4z"/>
	<path class="st2" d="M354.8,61.2c0.7-0.1,1.4-0.2,2-0.2c1.4,0,2.5,0.2,3.1,0.7c0.7,0.5,1,1,1.1,1.7l0.1,7.1l-3.6,0.1l-0.1-4.1
		c-0.1,0.1-0.3,0.2-0.5,0.3s-0.4,0.1-0.5,0.2c-0.1,0-0.1,0-0.2,0.1c-0.1,0-0.1,0-0.2,0.1c-0.3,0.1-0.6,0.2-0.8,0.3
		c-0.2,0.1-0.4,0.3-0.5,0.5c0,0,0,0,0,0.1v0.1v0.1v0.1c0,0.2,0.1,0.3,0.3,0.5s0.5,0.2,0.8,0.2c0.1,0,0.2,0,0.3,0
		c0.1,0,0.2,0,0.4-0.1c0,0,0,0,0.1,0c0,0,0,0,0.1,0h0.1h0.1l-0.4,2.1c-0.1,0-0.1,0-0.2,0s-0.1,0-0.2,0c-0.2,0-0.3,0-0.5,0
		s-0.3,0-0.4,0c-1.4,0-2.3-0.2-2.9-0.7s-1-1-1-1.6c0-0.1,0-0.1,0-0.2s0-0.1,0-0.2l0,0l0,0c0-0.5,0.1-0.9,0.4-1.3
		c0.2-0.4,0.5-0.7,0.8-0.9c0.2-0.1,0.4-0.2,0.6-0.3s0.4-0.2,0.6-0.2c0.4-0.1,0.8-0.2,1.2-0.3c0.4-0.1,0.8-0.2,1.1-0.3
		c0.4-0.1,0.8-0.2,1-0.4c0.3-0.1,0.4-0.3,0.4-0.5l0,0c0,0,0,0,0-0.1l0,0l0,0l0,0l0,0c0,0,0-0.1-0.1-0.1l-0.1-0.1
		c-0.1-0.1-0.3-0.1-0.5-0.2c-0.2-0.1-0.5-0.1-0.8-0.1c-0.4,0-0.9,0.1-1.5,0.2c-0.6,0.1-1.3,0.4-2.1,0.8l0.2-2.4
		C353.2,61.5,354.1,61.3,354.8,61.2z"/>
	<path class="st2" d="M365.5,57.9l0.2,12.6l-3.6,0.1L361.9,58L365.5,57.9z"/>
</g>
</svg>
